<svg xmlns="http://www.w3.org/2000/svg" viewBox="0 0 55.01 86.88"><defs><style>.cls-1{fill:#fff;}</style></defs><title>Microphone (копия)</title><g id="Слой_2" data-name="Слой 2"><g id="Microphone_копия_" data-name="Microphone (копия)"><path class="cls-1" d="M27.56,63.54h0c9.83,0,17.8-7.55,17.8-16.85L44.62,2.6A2.67,2.67,0,0,0,41.87,0H13.25A2.67,2.67,0,0,0,10.5,2.6L9.76,46.69C9.76,56,17.73,63.54,27.56,63.54Z"/><path class="cls-1" d="M53.32,41.07H50.75a1.62,1.62,0,0,0-1.54,1.09h0a2.68,2.68,0,0,0-.14.88V48.7c0,5.44-2.78,10.1-6.85,14A20.61,20.61,0,0,1,27.5,68.47a20.57,20.57,0,0,1-14.7-5.81C8.73,58.8,6,54.14,6,48.7V43.05a1.22,1.22,0,0,0,0-.26,2.22,2.22,0,0,0-2.2-1.71H2.25A2.21,2.21,0,0,0,0,42.85a1.5,1.5,0,0,0,0,.2V48.7c0,6.5,3,12.16,7.6,17s8.75,7.57,15.47,8.28v5.82H13a3,3,0,0,0-1.9.66A2.73,2.73,0,0,0,10,82.59c0,.76-.08,2.89.51,3.45a3,3,0,0,0,2.09.84H42.37A3,3,0,0,0,44.46,86c.59-.56.5-2.74.5-3.5a2.66,2.66,0,0,0-.88-2A3,3,0,0,0,42,79.72l-10,0V73.94c6.72-.71,10.9-3.47,15.47-8.28S55,55.2,55,48.7V43.05a2.68,2.68,0,0,0-.15-.87v0A1.63,1.63,0,0,0,53.32,41.07Z"/></g></g></svg>