<?xml version="1.0" encoding="iso-8859-1"?>
<!-- Generator: Adobe Illustrator 18.1.1, SVG Export Plug-In . SVG Version: 6.00 Build 0)  -->
<svg xmlns="http://www.w3.org/2000/svg" xmlns:xlink="http://www.w3.org/1999/xlink" version="1.1" id="Capa_1" x="0px" y="0px" viewBox="0 0 50.25 50.25" style="enable-background:new 0 0 50.25 50.25;" xml:space="preserve" width="512px" height="512px">
	<g>
		<path d="M48.25,10H2c-1.105,0-2,0.895-2,2v26.25c0,1.105,0.895,2,2,2h46.25c1.105,0,2-0.895,2-2V12   C50.25,10.895,49.355,10,48.25,10z M23.5,15h19.75c1.105,0,2,0.672,2,1.5s-0.895,1.5-2,1.5H23.5c-1.105,0-2-0.672-2-1.5   S22.395,15,23.5,15z M16.75,34.25H6c-1.105,0-2-0.616-2-1.375S4.895,31.5,6,31.5h10.75c1.105,0,2,0.616,2,1.375   S17.855,34.25,16.75,34.25z M18.75,27c0,1.105-0.895,2-2,2H6c-1.105,0-2-0.895-2-2V16.25c0-1.105,0.895-2,2-2h10.75   c1.105,0,2,0.895,2,2V27z M23.5,22h19.75c1.105,0,2,0.672,2,1.5s-0.895,1.5-2,1.5H23.5c-1.105,0-2-0.672-2-1.5S22.395,22,23.5,22z    M43.5,31.75H23.75c-1.105,0-2-0.672-2-1.5s0.895-1.5,2-1.5H43.5c1.105,0,2,0.672,2,1.5S44.605,31.75,43.5,31.75z" fill="#FFFFFF"/>
	</g>
</svg>
