<?xml version="1.0" encoding="iso-8859-1"?>
	<!-- Generator: Adobe Illustrator 18.0.0, SVG Export Plug-In . SVG Version: 6.00 Build 0)  -->
	<!DOCTYPE svg PUBLIC "-//W3C//DTD SVG 1.1//EN" "http://www.w3.org/Graphics/SVG/1.1/DTD/svg11.dtd">
	<svg xmlns="http://www.w3.org/2000/svg" xmlns:xlink="http://www.w3.org/1999/xlink" version="1.1" id="Capa_1" x="0px" y="0px" viewBox="0 0 369.722 369.722" style="enable-background:new 0 0 369.722 369.722;" xml:space="preserve" width="512px" height="512px">
	<g id="test">
		<path d="M184.864,186.139c42.307,0,76.623-41.669,76.623-93.069C261.488,41.669,250.21,0,184.864,0   c-65.359,0-76.629,41.669-76.629,93.07C108.236,144.47,142.55,186.139,184.864,186.139z" fill="#FFFFFF"/>
		<path d="M40.14,317.366C40.128,314.23,40.114,316.48,40.14,317.366L40.14,317.366z" fill="#FFFFFF"/>
		<path d="M329.575,319.816C329.614,318.957,329.589,313.86,329.575,319.816L329.575,319.816z" fill="#FFFFFF"/>
		<path d="M329.421,313.605c-1.432-89.54-13.113-115.053-102.611-131.203l-41.945,70.711l-41.969-70.711   C54.398,198.376,41.982,223.51,40.351,310.698c-0.125,7.118-0.184,7.495-0.211,6.668c0.006,1.547,0.014,4.413,0.014,9.403   c0,0,21.307,42.953,144.711,42.953c123.396,0,144.707-42.953,144.707-42.953c0-3.207,0.002-5.441,0.004-6.953   C329.554,320.326,329.509,319.334,329.421,313.605z" fill="#FFFFFF"/>
	</g>
</svg>
